Normalized EMG Linear Envelopes
nRows=38
nColumns=17

endheader
time	        VM	        VL	        RF	       GRA	        TA	   ADDLONG	   SEMIMEM	      BFLH	        GM	        GL	       TFL	   GLUTMAX	   GLUTMED	      PIRI	    OBTINT	        QF	
1.675	  0.079988	  0.141901	  0.322147	  0.449704	  0.214325	  0.432352	  0.105308	  0.040586	  0.340025	  0.392319	  0.442877	  0.037164	  0.094747	  0.373196	  2.004233	  0.250060	
1.6755	  0.079241	  0.140760	  0.322549	  0.452357	  0.216586	  0.433349	  0.105635	  0.041041	  0.341439	  0.392250	  0.443416	  0.036249	  0.094198	  0.372456	  1.989411	  0.249895	
1.676	  0.078521	  0.139660	  0.322941	  0.454988	  0.218870	  0.434294	  0.105961	  0.041506	  0.342758	  0.392103	  0.443955	  0.035356	  0.093645	  0.371682	  1.974536	  0.249735	
1.6765	  0.077827	  0.138602	  0.323322	  0.457595	  0.221179	  0.435187	  0.106288	  0.041981	  0.343982	  0.391878	  0.444491	  0.034484	  0.093088	  0.370871	  1.959610	  0.249580	
1.677	  0.077159	  0.137584	  0.323695	  0.460178	  0.223511	  0.436027	  0.106614	  0.042465	  0.345109	  0.391576	  0.445025	  0.033633	  0.092527	  0.370023	  1.944634	  0.249427	
1.6775	  0.076516	  0.136607	  0.324061	  0.462735	  0.225867	  0.436813	  0.106940	  0.042959	  0.346138	  0.391198	  0.445556	  0.032802	  0.091962	  0.369139	  1.929612	  0.249274	
1.678	  0.075899	  0.135669	  0.324419	  0.465267	  0.228248	  0.437543	  0.107267	  0.043462	  0.347068	  0.390745	  0.446083	  0.031993	  0.091395	  0.368219	  1.914545	  0.249121	
1.6785	  0.075306	  0.134769	  0.324770	  0.467772	  0.230652	  0.438219	  0.107593	  0.043974	  0.347898	  0.390219	  0.446604	  0.031203	  0.090825	  0.367262	  1.899438	  0.248966	
1.679	  0.074737	  0.133909	  0.325116	  0.470250	  0.233081	  0.438838	  0.107919	  0.044494	  0.348629	  0.389622	  0.447119	  0.030434	  0.090252	  0.366269	  1.884294	  0.248807	
1.6795	  0.074191	  0.133085	  0.325457	  0.472699	  0.235534	  0.439401	  0.108246	  0.045022	  0.349260	  0.388955	  0.447627	  0.029684	  0.089677	  0.365240	  1.869120	  0.248643	
1.68	  0.073669	  0.132298	  0.325793	  0.475120	  0.238012	  0.439909	  0.108573	  0.045559	  0.349791	  0.388220	  0.448126	  0.028953	  0.089101	  0.364176	  1.853923	  0.248472	
1.6805	  0.073168	  0.131548	  0.326125	  0.477511	  0.240514	  0.440362	  0.108901	  0.046103	  0.350223	  0.387420	  0.448616	  0.028242	  0.088523	  0.363079	  1.838711	  0.248292	
1.681	  0.072690	  0.130833	  0.326452	  0.479871	  0.243040	  0.440760	  0.109229	  0.046654	  0.350555	  0.386558	  0.449097	  0.027550	  0.087944	  0.361948	  1.823492	  0.248102	
1.6815	  0.072232	  0.130152	  0.326776	  0.482200	  0.245590	  0.441105	  0.109559	  0.047213	  0.350789	  0.385635	  0.449567	  0.026876	  0.087365	  0.360786	  1.808277	  0.247900	
1.682	  0.071796	  0.129505	  0.327097	  0.484497	  0.248164	  0.441397	  0.109889	  0.047778	  0.350924	  0.384654	  0.450025	  0.026221	  0.086785	  0.359594	  1.793076	  0.247683	
1.6825	  0.071380	  0.128892	  0.327414	  0.486762	  0.250762	  0.441639	  0.110221	  0.048351	  0.350961	  0.383619	  0.450472	  0.025584	  0.086205	  0.358372	  1.777900	  0.247451	
1.683	  0.070984	  0.128311	  0.327728	  0.488996	  0.253384	  0.441830	  0.110555	  0.048930	  0.350902	  0.382530	  0.450906	  0.024964	  0.085625	  0.357123	  1.762759	  0.247201	
1.6835	  0.070607	  0.127762	  0.328039	  0.491198	  0.256029	  0.441972	  0.110891	  0.049515	  0.350749	  0.381391	  0.451326	  0.024363	  0.085046	  0.355849	  1.747664	  0.246931	
1.684	  0.070249	  0.127245	  0.328348	  0.493369	  0.258697	  0.442065	  0.111229	  0.050106	  0.350504	  0.380204	  0.451732	  0.023779	  0.084468	  0.354550	  1.732627	  0.246639	
1.6845	  0.069910	  0.126758	  0.328655	  0.495511	  0.261388	  0.442112	  0.111570	  0.050703	  0.350168	  0.378971	  0.452122	  0.023212	  0.083891	  0.353229	  1.717658	  0.246323	
1.685	  0.069590	  0.126302	  0.328960	  0.497623	  0.264101	  0.442112	  0.111914	  0.051306	  0.349745	  0.377693	  0.452496	  0.022661	  0.083316	  0.351886	  1.702767	  0.245981	
1.6855	  0.069287	  0.125875	  0.329264	  0.499707	  0.266835	  0.442068	  0.112261	  0.051914	  0.349237	  0.376373	  0.452853	  0.022128	  0.082742	  0.350523	  1.687964	  0.245612	
1.686	  0.069002	  0.125478	  0.329566	  0.501763	  0.269592	  0.441980	  0.112611	  0.052528	  0.348647	  0.375012	  0.453192	  0.021611	  0.082170	  0.349141	  1.673260	  0.245213	
1.6865	  0.068735	  0.125110	  0.329868	  0.503791	  0.272370	  0.441849	  0.112965	  0.053146	  0.347977	  0.373611	  0.453513	  0.021110	  0.081600	  0.347743	  1.658663	  0.244782	
1.687	  0.068484	  0.124769	  0.330169	  0.505793	  0.275169	  0.441677	  0.113323	  0.053769	  0.347229	  0.372174	  0.453814	  0.020625	  0.081032	  0.346328	  1.644182	  0.244317	
1.6875	  0.068249	  0.124456	  0.330470	  0.507768	  0.277989	  0.441465	  0.113684	  0.054397	  0.346407	  0.370700	  0.454094	  0.020157	  0.080467	  0.344899	  1.629825	  0.243818	
1.688	  0.068031	  0.124170	  0.330772	  0.509717	  0.280830	  0.441215	  0.114049	  0.055028	  0.345512	  0.369191	  0.454353	  0.019703	  0.079905	  0.343457	  1.615601	  0.243282	
1.6885	  0.067828	  0.123911	  0.331075	  0.511640	  0.283692	  0.440929	  0.114419	  0.055664	  0.344547	  0.367649	  0.454590	  0.019266	  0.079346	  0.342002	  1.601518	  0.242707	
1.689	  0.067640	  0.123677	  0.331380	  0.513537	  0.286574	  0.440608	  0.114792	  0.056304	  0.343515	  0.366075	  0.454805	  0.018843	  0.078790	  0.340538	  1.587582	  0.242093	
1.6895	  0.067466	  0.123468	  0.331689	  0.515409	  0.289476	  0.440253	  0.115170	  0.056946	  0.342416	  0.364469	  0.454997	  0.018436	  0.078237	  0.339065	  1.573802	  0.241438	
1.69	  0.067307	  0.123284	  0.332000	  0.517255	  0.292397	  0.439867	  0.115553	  0.057592	  0.341254	  0.362832	  0.455166	  0.018044	  0.077688	  0.337584	  1.560186	  0.240741	
1.6905	  0.067163	  0.123125	  0.332317	  0.519075	  0.295338	  0.439451	  0.115940	  0.058241	  0.340030	  0.361166	  0.455312	  0.017666	  0.077143	  0.336097	  1.546739	  0.240001	
1.691	  0.067031	  0.122989	  0.332639	  0.520871	  0.298299	  0.439006	  0.116332	  0.058893	  0.338746	  0.359471	  0.455434	  0.017302	  0.076602	  0.334605	  1.533469	  0.239217	
1.6915	  0.066914	  0.122877	  0.332966	  0.522642	  0.301278	  0.438534	  0.116728	  0.059547	  0.337405	  0.357748	  0.455534	  0.016953	  0.076066	  0.333110	  1.520384	  0.238389	
1.692	  0.066809	  0.122789	  0.333300	  0.524389	  0.304278	  0.438036	  0.117130	  0.060202	  0.336009	  0.355997	  0.455610	  0.016618	  0.075533	  0.331612	  1.507490	  0.237516	
1.6925	  0.066717	  0.122723	  0.333641	  0.526111	  0.307296	  0.437513	  0.117536	  0.060860	  0.334558	  0.354220	  0.455664	  0.016297	  0.075005	  0.330114	  1.494793	  0.236597	
1.693	  0.066638	  0.122679	  0.333989	  0.527811	  0.310335	  0.436967	  0.117948	  0.061519	  0.333055	  0.352415	  0.455695	  0.015989	  0.074482	  0.328615	  1.482299	  0.235631	
1.6935	  0.066571	  0.122658	  0.334347	  0.529487	  0.313393	  0.436398	  0.118364	  0.062179	  0.331501	  0.350585	  0.455703	  0.015695	  0.073964	  0.327117	  1.470017	  0.234619	
